<mxfile>
  <diagram id="oUArOegA1qnD5YS_jIDb" name="第 1 页">
    <mxGraphModel dx="768" dy="525" grid="1" gridSize="10" guides="1" tooltips="1" connect="1" arrows="1" fold="1" page="1" pageScale="1" pageWidth="1200" pageHeight="1920" math="0" shadow="0">
      <root>
        <mxCell id="0" />
        <mxCell id="1" parent="0" />
        <mxCell id="ZDAwks3hyeTNJcY4Nffe-1" value="&lt;div style=&quot;font-family: &amp;quot;consolas&amp;quot; , &amp;quot;courier new&amp;quot; , monospace ; font-size: 14px ; line-height: 19px&quot;&gt;&lt;div style=&quot;color: rgb(212 , 212 , 212)&quot;&gt;&lt;span style=&quot;color: #808080&quot;&gt;&amp;lt;!&lt;/span&gt;&lt;span style=&quot;color: #569cd6&quot;&gt;DOCTYPE&lt;/span&gt; &lt;span style=&quot;color: #9cdcfe&quot;&gt;html&lt;/span&gt;&lt;span style=&quot;color: #808080&quot;&gt;&amp;gt;&lt;/span&gt;&lt;/div&gt;&lt;div style=&quot;color: rgb(212 , 212 , 212)&quot;&gt;&lt;span style=&quot;color: #808080&quot;&gt;&amp;lt;&lt;/span&gt;&lt;span style=&quot;color: #569cd6&quot;&gt;html&lt;/span&gt; &lt;span style=&quot;color: #9cdcfe&quot;&gt;lang&lt;/span&gt;=&lt;span style=&quot;color: #ce9178&quot;&gt;&quot;en&quot;&lt;/span&gt;&lt;span style=&quot;color: #808080&quot;&gt;&amp;gt;&lt;/span&gt;&lt;/div&gt;&lt;br&gt;&lt;div style=&quot;color: rgb(212 , 212 , 212)&quot;&gt;&lt;span style=&quot;color: #808080&quot;&gt;&amp;lt;&lt;/span&gt;&lt;span style=&quot;color: #569cd6&quot;&gt;head&lt;/span&gt;&lt;span style=&quot;color: #808080&quot;&gt;&amp;gt;&lt;/span&gt;&lt;/div&gt;&lt;div style=&quot;color: rgb(212 , 212 , 212)&quot;&gt;&amp;nbsp; &lt;span style=&quot;color: #808080&quot;&gt;&amp;lt;&lt;/span&gt;&lt;span style=&quot;color: #569cd6&quot;&gt;meta&lt;/span&gt; &lt;span style=&quot;color: #9cdcfe&quot;&gt;charset&lt;/span&gt;=&lt;span style=&quot;color: #ce9178&quot;&gt;&quot;UTF-8&quot;&lt;/span&gt;&lt;span style=&quot;color: #808080&quot;&gt;&amp;gt;&lt;/span&gt;&lt;/div&gt;&lt;div style=&quot;color: rgb(212 , 212 , 212)&quot;&gt;&amp;nbsp; &lt;span style=&quot;color: #808080&quot;&gt;&amp;lt;&lt;/span&gt;&lt;span style=&quot;color: #569cd6&quot;&gt;title&lt;/span&gt;&lt;span style=&quot;color: #808080&quot;&gt;&amp;gt;&lt;/span&gt;Draw.Fund&lt;span style=&quot;color: #808080&quot;&gt;&amp;lt;/&lt;/span&gt;&lt;span style=&quot;color: #569cd6&quot;&gt;title&lt;/span&gt;&lt;span style=&quot;color: #808080&quot;&gt;&amp;gt;&lt;/span&gt;&lt;/div&gt;&lt;div style=&quot;color: rgb(212 , 212 , 212)&quot;&gt;&amp;nbsp; &lt;span style=&quot;color: #808080&quot;&gt;&amp;lt;&lt;/span&gt;&lt;span style=&quot;color: #569cd6&quot;&gt;link&lt;/span&gt; &lt;span style=&quot;color: #9cdcfe&quot;&gt;rel&lt;/span&gt;=&lt;span style=&quot;color: #ce9178&quot;&gt;&quot;icon&quot;&lt;/span&gt; &lt;span style=&quot;color: #9cdcfe&quot;&gt;href&lt;/span&gt;=&lt;span style=&quot;color: #ce9178&quot;&gt;&quot;_media/favicon.ico&quot;&lt;/span&gt; &lt;span style=&quot;color: #808080&quot;&gt;/&amp;gt;&lt;/span&gt;&lt;/div&gt;&lt;div style=&quot;color: rgb(212 , 212 , 212)&quot;&gt;&amp;nbsp; &lt;span style=&quot;color: #808080&quot;&gt;&amp;lt;&lt;/span&gt;&lt;span style=&quot;color: #569cd6&quot;&gt;meta&lt;/span&gt; &lt;span style=&quot;color: #9cdcfe&quot;&gt;http-equiv&lt;/span&gt;=&lt;span style=&quot;color: #ce9178&quot;&gt;&quot;X-UA-Compatible&quot;&lt;/span&gt; &lt;span style=&quot;color: #9cdcfe&quot;&gt;content&lt;/span&gt;=&lt;span style=&quot;color: #ce9178&quot;&gt;&quot;IE=edge,chrome=1&quot;&lt;/span&gt; &lt;span style=&quot;color: #808080&quot;&gt;/&amp;gt;&lt;/span&gt;&lt;/div&gt;&lt;div style=&quot;color: rgb(212 , 212 , 212)&quot;&gt;&amp;nbsp; &lt;span style=&quot;color: #808080&quot;&gt;&amp;lt;&lt;/span&gt;&lt;span style=&quot;color: #569cd6&quot;&gt;meta&lt;/span&gt; &lt;span style=&quot;color: #9cdcfe&quot;&gt;name&lt;/span&gt;=&lt;span style=&quot;color: #ce9178&quot;&gt;&quot;description&quot;&lt;/span&gt; &lt;span style=&quot;color: #9cdcfe&quot;&gt;content&lt;/span&gt;=&lt;span style=&quot;color: #ce9178&quot;&gt;&quot;Description&quot;&lt;/span&gt;&lt;span style=&quot;color: #808080&quot;&gt;&amp;gt;&lt;/span&gt;&lt;/div&gt;&lt;div style=&quot;color: rgb(212 , 212 , 212)&quot;&gt;&amp;nbsp; &lt;span style=&quot;color: #808080&quot;&gt;&amp;lt;&lt;/span&gt;&lt;span style=&quot;color: #569cd6&quot;&gt;meta&lt;/span&gt; &lt;span style=&quot;color: #9cdcfe&quot;&gt;name&lt;/span&gt;=&lt;span style=&quot;color: #ce9178&quot;&gt;&quot;viewport&quot;&lt;/span&gt; &lt;span style=&quot;color: #9cdcfe&quot;&gt;content&lt;/span&gt;=&lt;span style=&quot;color: #ce9178&quot;&gt;&quot;width=device-width, initial-scale=1.0, minimum-scale=1.0&quot;&lt;/span&gt;&lt;span style=&quot;color: #808080&quot;&gt;&amp;gt;&lt;/span&gt;&lt;/div&gt;&lt;div style=&quot;color: rgb(212 , 212 , 212)&quot;&gt;&amp;nbsp; &lt;span style=&quot;color: #808080&quot;&gt;&amp;lt;&lt;/span&gt;&lt;span style=&quot;color: #569cd6&quot;&gt;link&lt;/span&gt; &lt;span style=&quot;color: #9cdcfe&quot;&gt;rel&lt;/span&gt;=&lt;span style=&quot;color: #ce9178&quot;&gt;&quot;stylesheet&quot;&lt;/span&gt; &lt;span style=&quot;color: #9cdcfe&quot;&gt;href&lt;/span&gt;=&lt;span style=&quot;color: #ce9178&quot;&gt;&quot;//cdn.jsdelivr.net/npm/docsify@4/lib/themes/vue.css&quot;&lt;/span&gt;&lt;span style=&quot;color: #808080&quot;&gt;&amp;gt;&lt;/span&gt;&lt;/div&gt;&lt;div style=&quot;color: rgb(212 , 212 , 212)&quot;&gt;&lt;span style=&quot;color: #808080&quot;&gt;&amp;lt;/&lt;/span&gt;&lt;span style=&quot;color: #569cd6&quot;&gt;head&lt;/span&gt;&lt;span style=&quot;color: #808080&quot;&gt;&amp;gt;&lt;/span&gt;&lt;/div&gt;&lt;br&gt;&lt;div style=&quot;color: rgb(212 , 212 , 212)&quot;&gt;&lt;span style=&quot;color: #808080&quot;&gt;&amp;lt;&lt;/span&gt;&lt;span style=&quot;color: #569cd6&quot;&gt;body&lt;/span&gt;&lt;span style=&quot;color: #808080&quot;&gt;&amp;gt;&lt;/span&gt;&lt;/div&gt;&lt;div style=&quot;color: rgb(212 , 212 , 212)&quot;&gt;&amp;nbsp; &lt;span style=&quot;color: #808080&quot;&gt;&amp;lt;&lt;/span&gt;&lt;span style=&quot;color: #569cd6&quot;&gt;div&lt;/span&gt; &lt;span style=&quot;color: #9cdcfe&quot;&gt;id&lt;/span&gt;=&lt;span style=&quot;color: #ce9178&quot;&gt;&quot;app&quot;&lt;/span&gt;&lt;span style=&quot;color: #808080&quot;&gt;&amp;gt;&amp;lt;/&lt;/span&gt;&lt;span style=&quot;color: #569cd6&quot;&gt;div&lt;/span&gt;&lt;span style=&quot;color: #808080&quot;&gt;&amp;gt;&lt;/span&gt;&lt;/div&gt;&lt;div style=&quot;color: rgb(212 , 212 , 212)&quot;&gt;&amp;nbsp; &lt;span style=&quot;color: #808080&quot;&gt;&amp;lt;&lt;/span&gt;&lt;span style=&quot;color: #569cd6&quot;&gt;script&lt;/span&gt;&lt;span style=&quot;color: #808080&quot;&gt;&amp;gt;&lt;/span&gt;&lt;/div&gt;&lt;div style=&quot;color: rgb(212 , 212 , 212)&quot;&gt;&amp;nbsp; &amp;nbsp; &lt;span style=&quot;color: #9cdcfe&quot;&gt;window&lt;/span&gt;.&lt;span style=&quot;color: #9cdcfe&quot;&gt;$docsify&lt;/span&gt; = {&lt;/div&gt;&lt;div style=&quot;color: rgb(212 , 212 , 212)&quot;&gt;&amp;nbsp; &amp;nbsp; &amp;nbsp; &lt;span style=&quot;color: #9cdcfe&quot;&gt;name:&lt;/span&gt; &lt;span style=&quot;color: #ce9178&quot;&gt;&#39;&#39;&lt;/span&gt;,&lt;/div&gt;&lt;div style=&quot;color: rgb(212 , 212 , 212)&quot;&gt;&amp;nbsp; &amp;nbsp; &amp;nbsp; &lt;span style=&quot;color: #9cdcfe&quot;&gt;repo:&lt;/span&gt; &lt;span style=&quot;color: #ce9178&quot;&gt;&#39;&#39;&lt;/span&gt;,&lt;/div&gt;&lt;div style=&quot;color: rgb(212 , 212 , 212)&quot;&gt;&amp;nbsp; &amp;nbsp; &amp;nbsp; &lt;span style=&quot;color: #9cdcfe&quot;&gt;loadSidebar:&lt;/span&gt; &lt;span style=&quot;color: #569cd6&quot;&gt;true&lt;/span&gt;,&lt;/div&gt;&lt;div style=&quot;color: rgb(212 , 212 , 212)&quot;&gt;&amp;nbsp; &amp;nbsp; &amp;nbsp; &lt;span style=&quot;color: #9cdcfe&quot;&gt;subMaxLevel:&lt;/span&gt; &lt;span style=&quot;color: #b5cea8&quot;&gt;2&lt;/span&gt;,&lt;/div&gt;&lt;div style=&quot;color: rgb(212 , 212 , 212)&quot;&gt;&amp;nbsp; &amp;nbsp; &amp;nbsp; &lt;span style=&quot;color: #9cdcfe&quot;&gt;coverpage:&lt;/span&gt; &lt;span style=&quot;color: #569cd6&quot;&gt;true&lt;/span&gt;,&lt;/div&gt;&lt;br&gt;&lt;div style=&quot;color: rgb(212 , 212 , 212)&quot;&gt;&amp;nbsp; &amp;nbsp; &amp;nbsp; &lt;span style=&quot;color: #6a9955&quot;&gt;// Custom file name&lt;/span&gt;&lt;/div&gt;&lt;div style=&quot;color: rgb(212 , 212 , 212)&quot;&gt;&amp;nbsp; &amp;nbsp; &amp;nbsp; &lt;span style=&quot;color: #9cdcfe&quot;&gt;coverpage:&lt;/span&gt; &lt;span style=&quot;color: #ce9178&quot;&gt;&#39;_coverpage.md&#39;&lt;/span&gt;,&lt;/div&gt;&lt;br&gt;&lt;div style=&quot;color: rgb(212 , 212 , 212)&quot;&gt;&amp;nbsp; &amp;nbsp; &amp;nbsp; &lt;span style=&quot;color: #6a9955&quot;&gt;// multiple covers&lt;/span&gt;&lt;/div&gt;&lt;div style=&quot;color: rgb(212 , 212 , 212)&quot;&gt;&amp;nbsp; &amp;nbsp; &amp;nbsp; &lt;span style=&quot;color: #9cdcfe&quot;&gt;coverpage:&lt;/span&gt; [&lt;span style=&quot;color: #ce9178&quot;&gt;&#39;/&#39;&lt;/span&gt;, &lt;span style=&quot;color: #ce9178&quot;&gt;&#39;/zh-cn/&#39;&lt;/span&gt;],&lt;/div&gt;&lt;br&gt;&lt;div style=&quot;color: rgb(212 , 212 , 212)&quot;&gt;&amp;nbsp; &amp;nbsp; &amp;nbsp; &lt;span style=&quot;color: #6a9955&quot;&gt;// multiple covers and custom file name&lt;/span&gt;&lt;/div&gt;&lt;div style=&quot;color: rgb(212 , 212 , 212)&quot;&gt;&amp;nbsp; &amp;nbsp; &amp;nbsp; &lt;span style=&quot;color: #9cdcfe&quot;&gt;coverpage:&lt;/span&gt; {&lt;/div&gt;&lt;div style=&quot;color: rgb(212 , 212 , 212)&quot;&gt;&amp;nbsp; &amp;nbsp; &amp;nbsp; &amp;nbsp; &lt;span style=&quot;color: #ce9178&quot;&gt;&#39;/&#39;&lt;/span&gt;&lt;span style=&quot;color: #9cdcfe&quot;&gt;:&lt;/span&gt; &lt;span style=&quot;color: #ce9178&quot;&gt;&#39;_coverpage.md&#39;&lt;/span&gt;,&lt;/div&gt;&lt;div style=&quot;color: rgb(212 , 212 , 212)&quot;&gt;&amp;nbsp; &amp;nbsp; &amp;nbsp; &amp;nbsp; &lt;span style=&quot;color: #ce9178&quot;&gt;&#39;/zh-cn/&#39;&lt;/span&gt;&lt;span style=&quot;color: #9cdcfe&quot;&gt;:&lt;/span&gt; &lt;span style=&quot;color: #ce9178&quot;&gt;&#39;_coverpage.md&#39;&lt;/span&gt;,&lt;/div&gt;&lt;div style=&quot;color: rgb(212 , 212 , 212)&quot;&gt;&amp;nbsp; &amp;nbsp; &amp;nbsp; },&lt;/div&gt;&lt;br&gt;&lt;div style=&quot;color: rgb(212 , 212 , 212)&quot;&gt;&amp;nbsp; &amp;nbsp; &amp;nbsp; &lt;span style=&quot;color: #9cdcfe&quot;&gt;markdown:&lt;/span&gt; {&lt;/div&gt;&lt;div style=&quot;color: rgb(212 , 212 , 212)&quot;&gt;&amp;nbsp; &amp;nbsp; &amp;nbsp; &amp;nbsp; &lt;span style=&quot;color: #9cdcfe&quot;&gt;renderer:&lt;/span&gt; {&lt;/div&gt;&lt;br&gt;&lt;div style=&quot;color: rgb(212 , 212 , 212)&quot;&gt;&amp;nbsp; &amp;nbsp; &amp;nbsp; &amp;nbsp; &amp;nbsp; &lt;span style=&quot;color: #dcdcaa&quot;&gt;code&lt;/span&gt;&lt;span style=&quot;color: #9cdcfe&quot;&gt;:&lt;/span&gt; &lt;span style=&quot;color: #569cd6&quot;&gt;function&lt;/span&gt; (&lt;span style=&quot;color: #9cdcfe&quot;&gt;code&lt;/span&gt;, &lt;span style=&quot;color: #9cdcfe&quot;&gt;lang&lt;/span&gt;) {&lt;/div&gt;&lt;div style=&quot;color: rgb(212 , 212 , 212)&quot;&gt;&amp;nbsp; &amp;nbsp; &amp;nbsp; &amp;nbsp; &amp;nbsp; &amp;nbsp; &lt;span style=&quot;color: #c586c0&quot;&gt;if&lt;/span&gt; (&lt;span style=&quot;color: #9cdcfe&quot;&gt;lang&lt;/span&gt; === &lt;span style=&quot;color: #ce9178&quot;&gt;&#39;drawio&#39;&lt;/span&gt;) {&lt;/div&gt;&lt;div style=&quot;color: rgb(212 , 212 , 212)&quot;&gt;&amp;nbsp; &amp;nbsp; &amp;nbsp; &amp;nbsp; &amp;nbsp; &amp;nbsp; &amp;nbsp; &lt;span style=&quot;color: #c586c0&quot;&gt;if&lt;/span&gt; (&lt;span style=&quot;color: #9cdcfe&quot;&gt;window&lt;/span&gt;.&lt;span style=&quot;color: #9cdcfe&quot;&gt;drawioConverter&lt;/span&gt;) {&lt;/div&gt;&lt;div style=&quot;color: rgb(212 , 212 , 212)&quot;&gt;&amp;nbsp; &amp;nbsp; &amp;nbsp; &amp;nbsp; &amp;nbsp; &amp;nbsp; &amp;nbsp; &amp;nbsp; &lt;span style=&quot;color: #9cdcfe&quot;&gt;console&lt;/span&gt;.&lt;span style=&quot;color: #dcdcaa&quot;&gt;log&lt;/span&gt;(&lt;span style=&quot;color: #ce9178&quot;&gt;&#39;drawio 转化中&#39;&lt;/span&gt;)&lt;/div&gt;&lt;div style=&quot;color: rgb(212 , 212 , 212)&quot;&gt;&amp;nbsp; &amp;nbsp; &amp;nbsp; &amp;nbsp; &amp;nbsp; &amp;nbsp; &amp;nbsp; &amp;nbsp; &lt;span style=&quot;color: #c586c0&quot;&gt;return&lt;/span&gt; &lt;span style=&quot;color: #9cdcfe&quot;&gt;window&lt;/span&gt;.&lt;span style=&quot;color: #dcdcaa&quot;&gt;drawioConverter&lt;/span&gt;(&lt;span style=&quot;color: #9cdcfe&quot;&gt;code&lt;/span&gt;)&lt;/div&gt;&lt;div style=&quot;color: rgb(212 , 212 , 212)&quot;&gt;&amp;nbsp; &amp;nbsp; &amp;nbsp; &amp;nbsp; &amp;nbsp; &amp;nbsp; &amp;nbsp; } &lt;span style=&quot;color: #c586c0&quot;&gt;else&lt;/span&gt; {&lt;/div&gt;&lt;div style=&quot;color: rgb(212 , 212 , 212)&quot;&gt;&amp;nbsp; &amp;nbsp; &amp;nbsp; &amp;nbsp; &amp;nbsp; &amp;nbsp; &amp;nbsp; &amp;nbsp; &lt;span style=&quot;color: #c586c0&quot;&gt;return&lt;/span&gt; &lt;span style=&quot;color: #ce9178&quot;&gt;`&amp;lt;div class=&#39;drawio-code&#39;&amp;gt;&lt;/span&gt;&lt;span style=&quot;color: #569cd6&quot;&gt;${&lt;/span&gt;&lt;span style=&quot;color: #9cdcfe&quot;&gt;code&lt;/span&gt;&lt;span style=&quot;color: #569cd6&quot;&gt;}&lt;/span&gt;&lt;span style=&quot;color: #ce9178&quot;&gt;&amp;lt;/div&amp;gt;`&lt;/span&gt;&lt;/div&gt;&lt;div style=&quot;color: rgb(212 , 212 , 212)&quot;&gt;&amp;nbsp; &amp;nbsp; &amp;nbsp; &amp;nbsp; &amp;nbsp; &amp;nbsp; &amp;nbsp; }&lt;/div&gt;&lt;div style=&quot;color: rgb(212 , 212 , 212)&quot;&gt;&amp;nbsp; &amp;nbsp; &amp;nbsp; &amp;nbsp; &amp;nbsp; &amp;nbsp; } &lt;span style=&quot;color: #c586c0&quot;&gt;else&lt;/span&gt; {&lt;/div&gt;&lt;div style=&quot;color: rgb(212 , 212 , 212)&quot;&gt;&amp;nbsp; &amp;nbsp; &amp;nbsp; &amp;nbsp; &amp;nbsp; &amp;nbsp; &amp;nbsp; &lt;span style=&quot;color: #c586c0&quot;&gt;return&lt;/span&gt; &lt;span style=&quot;color: #569cd6&quot;&gt;this&lt;/span&gt;.&lt;span style=&quot;color: #9cdcfe&quot;&gt;origin&lt;/span&gt;.&lt;span style=&quot;color: #9cdcfe&quot;&gt;code&lt;/span&gt;.&lt;span style=&quot;color: #dcdcaa&quot;&gt;apply&lt;/span&gt;(&lt;span style=&quot;color: #569cd6&quot;&gt;this&lt;/span&gt;, &lt;span style=&quot;color: #569cd6&quot;&gt;arguments&lt;/span&gt;);&lt;/div&gt;&lt;div style=&quot;color: rgb(212 , 212 , 212)&quot;&gt;&amp;nbsp; &amp;nbsp; &amp;nbsp; &amp;nbsp; &amp;nbsp; &amp;nbsp; }&lt;/div&gt;&lt;div style=&quot;color: rgb(212 , 212 , 212)&quot;&gt;&amp;nbsp; &amp;nbsp; &amp;nbsp; &amp;nbsp; &amp;nbsp; }&lt;/div&gt;&lt;div style=&quot;color: rgb(212 , 212 , 212)&quot;&gt;&amp;nbsp; &amp;nbsp; &amp;nbsp; &amp;nbsp; }&lt;/div&gt;&lt;div style=&quot;color: rgb(212 , 212 , 212)&quot;&gt;&amp;nbsp; &amp;nbsp; &amp;nbsp; },&lt;/div&gt;&lt;br&gt;&lt;div style=&quot;color: rgb(212 , 212 , 212)&quot;&gt;&amp;nbsp; &amp;nbsp; &amp;nbsp; &lt;span style=&quot;color: #9cdcfe&quot;&gt;search:&lt;/span&gt; &lt;span style=&quot;color: #ce9178&quot;&gt;&#39;auto&#39;&lt;/span&gt;, &lt;span style=&quot;color: #6a9955&quot;&gt;// 默认值&lt;/span&gt;&lt;/div&gt;&lt;br&gt;&lt;div&gt;&lt;font color=&quot;#d4d4d4&quot;&gt;&amp;nbsp; &amp;nbsp; &amp;nbsp; &lt;/font&gt;&lt;font color=&quot;#ff3333&quot;&gt;search: [&lt;/font&gt;&lt;/div&gt;&lt;div style=&quot;color: rgb(212 , 212 , 212)&quot;&gt;&amp;nbsp; &amp;nbsp; &amp;nbsp; &amp;nbsp; &lt;span style=&quot;color: #ce9178&quot;&gt;&#39;/&#39;&lt;/span&gt;, &lt;span style=&quot;color: #6a9955&quot;&gt;// =&amp;gt; /README.md&lt;/span&gt;&lt;/div&gt;&lt;div style=&quot;color: rgb(212 , 212 , 212)&quot;&gt;&amp;nbsp; &amp;nbsp; &amp;nbsp; &amp;nbsp; &lt;span style=&quot;color: #ce9178&quot;&gt;&#39;/guide&#39;&lt;/span&gt;, &lt;span style=&quot;color: #6a9955&quot;&gt;// =&amp;gt; /guide.md&lt;/span&gt;&lt;/div&gt;&lt;div style=&quot;color: rgb(212 , 212 , 212)&quot;&gt;&amp;nbsp; &amp;nbsp; &amp;nbsp; &amp;nbsp; &lt;span style=&quot;color: #ce9178&quot;&gt;&#39;/get-started&#39;&lt;/span&gt;, &lt;span style=&quot;color: #6a9955&quot;&gt;// =&amp;gt; /get-started.md&lt;/span&gt;&lt;/div&gt;&lt;div style=&quot;color: rgb(212 , 212 , 212)&quot;&gt;&amp;nbsp; &amp;nbsp; &amp;nbsp; &amp;nbsp; &lt;span style=&quot;color: #ce9178&quot;&gt;&#39;/zh-cn/&#39;&lt;/span&gt;, &lt;span style=&quot;color: #6a9955&quot;&gt;// =&amp;gt; /zh-cn/README.md&lt;/span&gt;&lt;/div&gt;&lt;div style=&quot;color: rgb(212 , 212 , 212)&quot;&gt;&amp;nbsp; &amp;nbsp; &amp;nbsp; ],&lt;/div&gt;&lt;br&gt;&lt;div style=&quot;color: rgb(212 , 212 , 212)&quot;&gt;&amp;nbsp; &amp;nbsp; &amp;nbsp; &lt;span style=&quot;color: #6a9955&quot;&gt;// 完整配置参数&lt;/span&gt;&lt;/div&gt;&lt;div style=&quot;color: rgb(212 , 212 , 212)&quot;&gt;&amp;nbsp; &amp;nbsp; &amp;nbsp; &lt;span style=&quot;color: #9cdcfe&quot;&gt;search:&lt;/span&gt; {&lt;/div&gt;&lt;div style=&quot;color: rgb(212 , 212 , 212)&quot;&gt;&amp;nbsp; &amp;nbsp; &amp;nbsp; &amp;nbsp; &lt;span style=&quot;color: #9cdcfe&quot;&gt;maxAge:&lt;/span&gt; &lt;span style=&quot;color: #b5cea8&quot;&gt;86400000&lt;/span&gt;, &lt;span style=&quot;color: #6a9955&quot;&gt;// 过期时间，单位毫秒，默认一天&lt;/span&gt;&lt;/div&gt;&lt;div style=&quot;color: rgb(212 , 212 , 212)&quot;&gt;&amp;nbsp; &amp;nbsp; &amp;nbsp; &amp;nbsp; &lt;span style=&quot;color: #9cdcfe&quot;&gt;paths:&lt;/span&gt; [], &lt;span style=&quot;color: #6a9955&quot;&gt;// or &#39;auto&#39;&lt;/span&gt;&lt;/div&gt;&lt;div style=&quot;color: rgb(212 , 212 , 212)&quot;&gt;&amp;nbsp; &amp;nbsp; &amp;nbsp; &amp;nbsp; &lt;span style=&quot;color: #9cdcfe&quot;&gt;placeholder:&lt;/span&gt; &lt;span style=&quot;color: #ce9178&quot;&gt;&#39;Type to search&#39;&lt;/span&gt;,&lt;/div&gt;&lt;br&gt;&lt;div style=&quot;color: rgb(212 , 212 , 212)&quot;&gt;&amp;nbsp; &amp;nbsp; &amp;nbsp; &amp;nbsp; &lt;span style=&quot;color: #6a9955&quot;&gt;// 支持本地化&lt;/span&gt;&lt;/div&gt;&lt;div style=&quot;color: rgb(212 , 212 , 212)&quot;&gt;&amp;nbsp; &amp;nbsp; &amp;nbsp; &amp;nbsp; &lt;span style=&quot;color: #9cdcfe&quot;&gt;placeholder:&lt;/span&gt; {&lt;/div&gt;&lt;div style=&quot;color: rgb(212 , 212 , 212)&quot;&gt;&amp;nbsp; &amp;nbsp; &amp;nbsp; &amp;nbsp; &amp;nbsp; &lt;span style=&quot;color: #ce9178&quot;&gt;&#39;/en-US/&#39;&lt;/span&gt;&lt;span style=&quot;color: #9cdcfe&quot;&gt;:&lt;/span&gt; &lt;span style=&quot;color: #ce9178&quot;&gt;&#39;Type to search&#39;&lt;/span&gt;,&lt;/div&gt;&lt;div style=&quot;color: rgb(212 , 212 , 212)&quot;&gt;&amp;nbsp; &amp;nbsp; &amp;nbsp; &amp;nbsp; &amp;nbsp; &lt;span style=&quot;color: #ce9178&quot;&gt;&#39;/&#39;&lt;/span&gt;&lt;span style=&quot;color: #9cdcfe&quot;&gt;:&lt;/span&gt; &lt;span style=&quot;color: #ce9178&quot;&gt;&#39;搜索&#39;&lt;/span&gt;&lt;/div&gt;&lt;div style=&quot;color: rgb(212 , 212 , 212)&quot;&gt;&amp;nbsp; &amp;nbsp; &amp;nbsp; &amp;nbsp; },&lt;/div&gt;&lt;br&gt;&lt;div style=&quot;color: rgb(212 , 212 , 212)&quot;&gt;&amp;nbsp; &amp;nbsp; &amp;nbsp; &amp;nbsp; &lt;span style=&quot;color: #9cdcfe&quot;&gt;noData:&lt;/span&gt; &lt;span style=&quot;color: #ce9178&quot;&gt;&#39;No Results!&#39;&lt;/span&gt;,&lt;/div&gt;&lt;br&gt;&lt;div style=&quot;color: rgb(212 , 212 , 212)&quot;&gt;&amp;nbsp; &amp;nbsp; &amp;nbsp; &amp;nbsp; &lt;span style=&quot;color: #6a9955&quot;&gt;// 支持本地化&lt;/span&gt;&lt;/div&gt;&lt;div style=&quot;color: rgb(212 , 212 , 212)&quot;&gt;&amp;nbsp; &amp;nbsp; &amp;nbsp; &amp;nbsp; &lt;span style=&quot;color: #9cdcfe&quot;&gt;noData:&lt;/span&gt; {&lt;/div&gt;&lt;div style=&quot;color: rgb(212 , 212 , 212)&quot;&gt;&amp;nbsp; &amp;nbsp; &amp;nbsp; &amp;nbsp; &amp;nbsp; &lt;span style=&quot;color: #ce9178&quot;&gt;&#39;/en-US/&#39;&lt;/span&gt;&lt;span style=&quot;color: #9cdcfe&quot;&gt;:&lt;/span&gt; &lt;span style=&quot;color: #ce9178&quot;&gt;&#39;No Results&#39;&lt;/span&gt;,&lt;/div&gt;&lt;div style=&quot;color: rgb(212 , 212 , 212)&quot;&gt;&amp;nbsp; &amp;nbsp; &amp;nbsp; &amp;nbsp; &amp;nbsp; &lt;span style=&quot;color: #ce9178&quot;&gt;&#39;/&#39;&lt;/span&gt;&lt;span style=&quot;color: #9cdcfe&quot;&gt;:&lt;/span&gt; &lt;span style=&quot;color: #ce9178&quot;&gt;&#39;找不到结果&#39;&lt;/span&gt;&lt;/div&gt;&lt;div style=&quot;color: rgb(212 , 212 , 212)&quot;&gt;&amp;nbsp; &amp;nbsp; &amp;nbsp; &amp;nbsp; },&lt;/div&gt;&lt;br&gt;&lt;div style=&quot;color: rgb(212 , 212 , 212)&quot;&gt;&amp;nbsp; &amp;nbsp; &amp;nbsp; &amp;nbsp; &lt;span style=&quot;color: #6a9955&quot;&gt;// 搜索标题的最大层级, 1 - 6&lt;/span&gt;&lt;/div&gt;&lt;div style=&quot;color: rgb(212 , 212 , 212)&quot;&gt;&amp;nbsp; &amp;nbsp; &amp;nbsp; &amp;nbsp; &lt;span style=&quot;color: #9cdcfe&quot;&gt;depth:&lt;/span&gt; &lt;span style=&quot;color: #b5cea8&quot;&gt;6&lt;/span&gt;,&lt;/div&gt;&lt;br&gt;&lt;div style=&quot;color: rgb(212 , 212 , 212)&quot;&gt;&amp;nbsp; &amp;nbsp; &amp;nbsp; &amp;nbsp; &lt;span style=&quot;color: #9cdcfe&quot;&gt;hideOtherSidebarContent:&lt;/span&gt; &lt;span style=&quot;color: #569cd6&quot;&gt;false&lt;/span&gt;, &lt;span style=&quot;color: #6a9955&quot;&gt;// 是否隐藏其他侧边栏内容&lt;/span&gt;&lt;/div&gt;&lt;br&gt;&lt;div style=&quot;color: rgb(212 , 212 , 212)&quot;&gt;&amp;nbsp; &amp;nbsp; &amp;nbsp; &amp;nbsp; &lt;span style=&quot;color: #6a9955&quot;&gt;// 避免搜索索引冲突&lt;/span&gt;&lt;/div&gt;&lt;div style=&quot;color: rgb(212 , 212 , 212)&quot;&gt;&amp;nbsp; &amp;nbsp; &amp;nbsp; &amp;nbsp; &lt;span style=&quot;color: #6a9955&quot;&gt;// 同一域下的多个网站之间&lt;/span&gt;&lt;/div&gt;&lt;div style=&quot;color: rgb(212 , 212 , 212)&quot;&gt;&amp;nbsp; &amp;nbsp; &amp;nbsp; &amp;nbsp; &lt;span style=&quot;color: #9cdcfe&quot;&gt;namespace:&lt;/span&gt; &lt;span style=&quot;color: #ce9178&quot;&gt;&#39;website-1&#39;&lt;/span&gt;,&lt;/div&gt;&lt;br&gt;&lt;div style=&quot;color: rgb(212 , 212 , 212)&quot;&gt;&amp;nbsp; &amp;nbsp; &amp;nbsp; &amp;nbsp; &lt;span style=&quot;color: #6a9955&quot;&gt;// 使用不同的索引作为路径前缀（namespaces）&lt;/span&gt;&lt;/div&gt;&lt;div style=&quot;color: rgb(212 , 212 , 212)&quot;&gt;&amp;nbsp; &amp;nbsp; &amp;nbsp; &amp;nbsp; &lt;span style=&quot;color: #6a9955&quot;&gt;// 注意：仅适用于 paths: &#39;auto&#39; 模式&lt;/span&gt;&lt;/div&gt;&lt;div style=&quot;color: rgb(212 , 212 , 212)&quot;&gt;&amp;nbsp; &amp;nbsp; &amp;nbsp; &amp;nbsp; &lt;span style=&quot;color: #6a9955&quot;&gt;//&lt;/span&gt;&lt;/div&gt;&lt;div style=&quot;color: rgb(212 , 212 , 212)&quot;&gt;&amp;nbsp; &amp;nbsp; &amp;nbsp; &amp;nbsp; &lt;span style=&quot;color: #6a9955&quot;&gt;// 初始化索引时，我们从侧边栏查找第一个路径&lt;/span&gt;&lt;/div&gt;&lt;div style=&quot;color: rgb(212 , 212 , 212)&quot;&gt;&amp;nbsp; &amp;nbsp; &amp;nbsp; &amp;nbsp; &lt;span style=&quot;color: #6a9955&quot;&gt;// 如果它与列表中的前缀匹配，我们将切换到相应的索引&lt;/span&gt;&lt;/div&gt;&lt;div style=&quot;color: rgb(212 , 212 , 212)&quot;&gt;&amp;nbsp; &amp;nbsp; &amp;nbsp; &amp;nbsp; &lt;span style=&quot;color: #9cdcfe&quot;&gt;pathNamespaces:&lt;/span&gt; [&lt;span style=&quot;color: #ce9178&quot;&gt;&#39;/zh-cn&#39;&lt;/span&gt;, &lt;span style=&quot;color: #ce9178&quot;&gt;&#39;/en-US&#39;&lt;/span&gt;, &lt;span style=&quot;color: #ce9178&quot;&gt;&#39;/ru-ru/v1&#39;&lt;/span&gt;],&lt;/div&gt;&lt;br&gt;&lt;div style=&quot;color: rgb(212 , 212 , 212)&quot;&gt;&amp;nbsp; &amp;nbsp; &amp;nbsp; &amp;nbsp; &lt;span style=&quot;color: #6a9955&quot;&gt;// 您可以提供一个正则表达式来匹配前缀。在这种情况下，&lt;/span&gt;&lt;/div&gt;&lt;div style=&quot;color: rgb(212 , 212 , 212)&quot;&gt;&amp;nbsp; &amp;nbsp; &amp;nbsp; &amp;nbsp; &lt;span style=&quot;color: #6a9955&quot;&gt;// 匹配到的字符串将被用来识别索引&lt;/span&gt;&lt;/div&gt;&lt;div style=&quot;color: rgb(212 , 212 , 212)&quot;&gt;&amp;nbsp; &amp;nbsp; &amp;nbsp; &amp;nbsp; &lt;span style=&quot;color: #9cdcfe&quot;&gt;pathNamespaces:&lt;/span&gt; &lt;span style=&quot;color: #d16969&quot;&gt;/&lt;/span&gt;&lt;span style=&quot;color: #dcdcaa&quot;&gt;^&lt;/span&gt;&lt;span style=&quot;color: #ce9178&quot;&gt;(&lt;/span&gt;&lt;span style=&quot;color: #d7ba7d&quot;&gt;\/&lt;/span&gt;&lt;span style=&quot;color: #ce9178&quot;&gt;(&lt;/span&gt;&lt;span style=&quot;color: #d16969&quot;&gt;zh-cn&lt;/span&gt;&lt;span style=&quot;color: #dcdcaa&quot;&gt;|&lt;/span&gt;&lt;span style=&quot;color: #d16969&quot;&gt;en-US&lt;/span&gt;&lt;span style=&quot;color: #ce9178&quot;&gt;))&lt;/span&gt;&lt;span style=&quot;color: #d7ba7d&quot;&gt;?&lt;/span&gt;&lt;span style=&quot;color: #ce9178&quot;&gt;(&lt;/span&gt;&lt;span style=&quot;color: #d7ba7d&quot;&gt;\/&lt;/span&gt;&lt;span style=&quot;color: #ce9178&quot;&gt;(&lt;/span&gt;&lt;span style=&quot;color: #d16969&quot;&gt;v1&lt;/span&gt;&lt;span style=&quot;color: #dcdcaa&quot;&gt;|&lt;/span&gt;&lt;span style=&quot;color: #d16969&quot;&gt;v2&lt;/span&gt;&lt;span style=&quot;color: #ce9178&quot;&gt;))&lt;/span&gt;&lt;span style=&quot;color: #d7ba7d&quot;&gt;?&lt;/span&gt;&lt;span style=&quot;color: #d16969&quot;&gt;/&lt;/span&gt;&lt;/div&gt;&lt;div style=&quot;color: rgb(212 , 212 , 212)&quot;&gt;&amp;nbsp; &amp;nbsp; &amp;nbsp; }&lt;/div&gt;&lt;div style=&quot;color: rgb(212 , 212 , 212)&quot;&gt;&amp;nbsp; &amp;nbsp; }&lt;/div&gt;&lt;div style=&quot;color: rgb(212 , 212 , 212)&quot;&gt;&amp;nbsp; &lt;span style=&quot;color: #808080&quot;&gt;&amp;lt;/&lt;/span&gt;&lt;span style=&quot;color: #569cd6&quot;&gt;script&lt;/span&gt;&lt;span style=&quot;color: #808080&quot;&gt;&amp;gt;&lt;/span&gt;&lt;/div&gt;&lt;div style=&quot;color: rgb(212 , 212 , 212)&quot;&gt;&amp;nbsp; &lt;span style=&quot;color: #6a9955&quot;&gt;&amp;lt;!-- Docsify v4 --&amp;gt;&lt;/span&gt;&lt;/div&gt;&lt;div style=&quot;color: rgb(212 , 212 , 212)&quot;&gt;&amp;nbsp; &lt;span style=&quot;color: #808080&quot;&gt;&amp;lt;&lt;/span&gt;&lt;span style=&quot;color: #569cd6&quot;&gt;script&lt;/span&gt; &lt;span style=&quot;color: #9cdcfe&quot;&gt;src&lt;/span&gt;=&lt;span style=&quot;color: #ce9178&quot;&gt;&quot;//cdn.jsdelivr.net/npm/docsify@4&quot;&lt;/span&gt;&lt;span style=&quot;color: #808080&quot;&gt;&amp;gt;&amp;lt;/&lt;/span&gt;&lt;span style=&quot;color: #569cd6&quot;&gt;script&lt;/span&gt;&lt;span style=&quot;color: #808080&quot;&gt;&amp;gt;&lt;/span&gt;&lt;/div&gt;&lt;div style=&quot;color: rgb(212 , 212 , 212)&quot;&gt;&amp;nbsp; &lt;span style=&quot;color: #808080&quot;&gt;&amp;lt;&lt;/span&gt;&lt;span style=&quot;color: #569cd6&quot;&gt;script&lt;/span&gt; &lt;span style=&quot;color: #9cdcfe&quot;&gt;src&lt;/span&gt;=&lt;span style=&quot;color: #ce9178&quot;&gt;&quot;//cdn.jsdelivr.net/npm/docsify/lib/plugins/search.min.js&quot;&lt;/span&gt;&lt;span style=&quot;color: #808080&quot;&gt;&amp;gt;&amp;lt;/&lt;/span&gt;&lt;span style=&quot;color: #569cd6&quot;&gt;script&lt;/span&gt;&lt;span style=&quot;color: #808080&quot;&gt;&amp;gt;&lt;/span&gt;&lt;/div&gt;&lt;br&gt;&lt;div style=&quot;color: rgb(212 , 212 , 212)&quot;&gt;&amp;nbsp; &lt;span style=&quot;color: #808080&quot;&gt;&amp;lt;&lt;/span&gt;&lt;span style=&quot;color: #569cd6&quot;&gt;script&lt;/span&gt; &lt;span style=&quot;color: #9cdcfe&quot;&gt;src&lt;/span&gt;=&lt;span style=&quot;color: #ce9178&quot;&gt;&quot;//cdn.jsdelivr.net/npm/prismjs@1.23.0/components/prism-autohotkey.js&quot;&lt;/span&gt;&lt;span style=&quot;color: #808080&quot;&gt;&amp;gt;&amp;lt;/&lt;/span&gt;&lt;span style=&quot;color: #569cd6&quot;&gt;script&lt;/span&gt;&lt;span style=&quot;color: #808080&quot;&gt;&amp;gt;&lt;/span&gt;&lt;/div&gt;&lt;div style=&quot;color: rgb(212 , 212 , 212)&quot;&gt;&amp;nbsp; &lt;span style=&quot;color: #808080&quot;&gt;&amp;lt;&lt;/span&gt;&lt;span style=&quot;color: #569cd6&quot;&gt;script&lt;/span&gt; &lt;span style=&quot;color: #9cdcfe&quot;&gt;src&lt;/span&gt;=&lt;span style=&quot;color: #ce9178&quot;&gt;&quot;https://draw.fund/drawio/src/main/webapp/js/viewer.min.js&quot;&lt;/span&gt;&lt;span style=&quot;color: #808080&quot;&gt;&amp;gt;&amp;lt;/&lt;/span&gt;&lt;span style=&quot;color: #569cd6&quot;&gt;script&lt;/span&gt;&lt;span style=&quot;color: #808080&quot;&gt;&amp;gt;&lt;/span&gt;&lt;/div&gt;&lt;div style=&quot;color: rgb(212 , 212 , 212)&quot;&gt;&amp;nbsp; &lt;span style=&quot;color: #808080&quot;&gt;&amp;lt;&lt;/span&gt;&lt;span style=&quot;color: #569cd6&quot;&gt;script&lt;/span&gt; &lt;span style=&quot;color: #9cdcfe&quot;&gt;src&lt;/span&gt;=&lt;span style=&quot;color: #ce9178&quot;&gt;&#39;static/js-3rd/docsify-drawio.js&#39;&lt;/span&gt;&lt;span style=&quot;color: #808080&quot;&gt;&amp;gt;&amp;lt;/&lt;/span&gt;&lt;span style=&quot;color: #569cd6&quot;&gt;script&lt;/span&gt;&lt;span style=&quot;color: #808080&quot;&gt;&amp;gt;&lt;/span&gt;&lt;/div&gt;&lt;div style=&quot;color: rgb(212 , 212 , 212)&quot;&gt;&lt;span style=&quot;color: #808080&quot;&gt;&amp;lt;/&lt;/span&gt;&lt;span style=&quot;color: #569cd6&quot;&gt;body&lt;/span&gt;&lt;span style=&quot;color: #808080&quot;&gt;&amp;gt;&lt;/span&gt;&lt;/div&gt;&lt;br&gt;&lt;div style=&quot;color: rgb(212 , 212 , 212)&quot;&gt;&lt;span style=&quot;color: #808080&quot;&gt;&amp;lt;/&lt;/span&gt;&lt;span style=&quot;color: #569cd6&quot;&gt;html&lt;/span&gt;&lt;span style=&quot;color: #808080&quot;&gt;&amp;gt;&lt;/span&gt;&lt;/div&gt;&lt;/div&gt;" style="rounded=0;whiteSpace=wrap;html=1;align=left;fillColor=#000000;" parent="1" vertex="1">
          <mxGeometry width="870" height="2170" as="geometry" />
        </mxCell>
        <mxCell id="ZDAwks3hyeTNJcY4Nffe-2" value="&lt;font style=&quot;font-size: 18px&quot;&gt;1&lt;/font&gt;" style="ellipse;whiteSpace=wrap;html=1;aspect=fixed;fillColor=#FF0000;" parent="1" vertex="1">
          <mxGeometry y="300" width="30" height="30" as="geometry" />
        </mxCell>
        <mxCell id="ldDqL0wBBdD5jzJ5Qrpb-1" value="&lt;font style=&quot;font-size: 18px&quot;&gt;2&lt;/font&gt;" style="ellipse;whiteSpace=wrap;html=1;aspect=fixed;fillColor=#FF0000;" parent="1" vertex="1">
          <mxGeometry y="660" width="30" height="30" as="geometry" />
        </mxCell>
        <mxCell id="nYdaC7aOyWPw3E5i0vWA-7" style="edgeStyle=orthogonalEdgeStyle;rounded=0;orthogonalLoop=1;jettySize=auto;html=1;shadow=0;fontSize=20;fontColor=#FF0000;strokeColor=#FFFFFF;strokeWidth=6;" parent="1" source="nYdaC7aOyWPw3E5i0vWA-2" target="nYdaC7aOyWPw3E5i0vWA-6" edge="1">
          <mxGeometry relative="1" as="geometry" />
        </mxCell>
        <mxCell id="nYdaC7aOyWPw3E5i0vWA-2" value="备注条件判断" style="rhombus;whiteSpace=wrap;html=1;fillColor=#e51400;strokeColor=#E6E6E6;fontColor=#ffffff;strokeWidth=2;" parent="1" vertex="1">
          <mxGeometry x="350" y="230" width="210" height="210" as="geometry" />
        </mxCell>
        <mxCell id="nYdaC7aOyWPw3E5i0vWA-4" style="edgeStyle=orthogonalEdgeStyle;rounded=0;orthogonalLoop=1;jettySize=auto;html=1;entryX=0;entryY=0.5;entryDx=0;entryDy=0;fontSize=20;fontColor=#FF3333;strokeWidth=6;strokeColor=#FFFFFF;shadow=0;" parent="1" source="nYdaC7aOyWPw3E5i0vWA-3" target="nYdaC7aOyWPw3E5i0vWA-2" edge="1">
          <mxGeometry relative="1" as="geometry" />
        </mxCell>
        <mxCell id="nYdaC7aOyWPw3E5i0vWA-3" value="&lt;font style=&quot;font-size: 20px&quot;&gt;代码标绘图&lt;/font&gt;" style="rounded=1;whiteSpace=wrap;html=1;fontColor=#ffffff;strokeColor=#D4E1F5;strokeWidth=2;fillColor=#e51400;" parent="1" vertex="1">
          <mxGeometry x="240" y="30" width="120" height="60" as="geometry" />
        </mxCell>
        <mxCell id="nYdaC7aOyWPw3E5i0vWA-6" value="" style="rounded=0;whiteSpace=wrap;html=1;fontSize=20;fontColor=#ffffff;strokeColor=#FF0000;strokeWidth=2;fillColor=none;dashed=1;dashPattern=1 1;" parent="1" vertex="1">
          <mxGeometry x="40" y="660" width="480" height="340" as="geometry" />
        </mxCell>
      </root>
    </mxGraphModel>
  </diagram>
</mxfile>
